mastitorrents.com
 
http://mastitorrents.com/forums/index.php

General
Complete name                    : D:\MOVIES\DUBBED\Piranha [2010] 1Cd Dvd-Rip_By [~SAIF~] [~TDT~]\Piranha [2010] 1Cd Dvd-Rip_By [~SAIF~] [~TDT~].avi
Format                           : AVI
Format/Info                      : Audio Video Interleave
File size                        : 708 MiB
Duration                         : 1h 24mn
Overall bit rate                 : 1 167 Kbps
Writing library                  : VirtualDub build 32817/release

Video
ID                               : 0
Format                           : MPEG-4 Visual
Format profile                   : Advanced Simple@L5
Format settings, BVOP            : Yes
Format settings, QPel            : No
Format settings, GMC             : No warppoints
Format settings, Matrix          : Default (H.263)
Codec ID                         : XVID
Codec ID/Hint                    : XviD
Duration                         : 1h 24mn
Bit rate                         : 1 008 Kbps
Width                            : 624 pixels
Height                           : 272 pixels
Display aspect ratio             : 2.25:1
Frame rate                       : 25.000 fps
Color space                      : YUV
Chroma subsampling      
         : 4:2:0
Bit depth                        : 8 bits
Scan type                        : Progressive
Bits/(Pixel*Frame)               : 0.238
Stream size                      : 612 MiB (86%)
Writing library                  : XviD 1.2.1 (UTC 2008-12-04)

Audio
ID                               : 1
Format                           : MPEG Audio
Format version                   : Version 1
Format profile                   : Layer 3
Codec ID                         : 55
Codec ID/Hint                    : MP3
Duration                         : 1h 19mn
Bit rate mode                    : Constant
Bit rate                         : 160 Kbps
Channel(s)                       : 2 channels
Sampling rate                    : 48.0 KHz
Stream size                      : 90.4 MiB (13%)
Alignment                        : Split accross interleaves
Interleave, duration             : 43 ms (1.07 video frame) 
Interleave, preload duration     : 500 ms
